HIERARCHY
ROOT Hips
{
	OFFSET 0.000000 0.000000 0.000000
	CHANNELS 6 Xposition Yposition Zposition Xrotation Yrotation Zrotation
	JOINT LeftUpLeg_virtual
	{
		OFFSET 0.000000 0.000000 0.000000
		CHANNELS 3 Xrotation Yrotation Zrotation
		JOINT LeftUpLeg
		{
			OFFSET 10.205400 -3.823500 0.155100
			CHANNELS 3 Xrotation Yrotation Zrotation
			JOINT LeftLeg
			{
				OFFSET 0.708757 -12.982077 0.567790
				CHANNELS 3 Xrotation Yrotation Zrotation
				JOINT LeftFoot
				{
					OFFSET -0.708756 -10.717838 -2.184338
					CHANNELS 3 Xrotation Yrotation Zrotation
					JOINT LeftToeBase
					{
						OFFSET 0.108149 -7.191104 7.560241
						CHANNELS 3 Xrotation Yrotation Zrotation
						JOINT LeftToe_End
						{
							OFFSET 0.070230 0.081724 4.490308
							CHANNELS 3 Xrotation Yrotation Zrotation
							End Site
							{
								OFFSET 0 0 0
							}
						}
					}
				}
			}
		}
	}
	JOINT RightUpLeg_virtual
	{
		OFFSET 0.000000 0.000000 0.000000
		CHANNELS 3 Xrotation Yrotation Zrotation
		JOINT RightUpLeg
		{
			OFFSET -10.205400 -3.823500 0.005500
			CHANNELS 3 Xrotation Yrotation Zrotation
			JOINT RightLeg
			{
				OFFSET -0.708756 -12.982134 0.610632
				CHANNELS 3 Xrotation Yrotation Zrotation
				JOINT RightFoot
				{
					OFFSET 0.708754 -10.717769 -1.945823
					CHANNELS 3 Xrotation Yrotation Zrotation
					JOINT RightToeBase
					{
						OFFSET -0.108140 -7.191069 7.372968
						CHANNELS 3 Xrotation Yrotation Zrotation
						JOINT RightToe_End
						{
							OFFSET -0.070227 0.081735 4.479403
							CHANNELS 3 Xrotation Yrotation Zrotation
							End Site
							{
								OFFSET 0 0 0
							}
						}
					}
				}
			}
		}
	}
	JOINT Spine_virtual
	{
		OFFSET 0.000000 0.000000 0.000000
		CHANNELS 3 Xrotation Yrotation Zrotation
		JOINT Spine
		{
			OFFSET 0.000000 6.876099 0.125700
			CHANNELS 3 Xrotation Yrotation Zrotation
			JOINT Spine1
			{
				OFFSET 0.000000 5.730043 0.104720
				CHANNELS 3 Xrotation Yrotation Zrotation
				JOINT Spine1_split
				{
					OFFSET 0.000000 5.730043 0.104720
					CHANNELS 3 Xrotation Yrotation Zrotation
					JOINT Spine2
					{
						OFFSET 0.000000 5.730043 0.104720
						CHANNELS 3 Xrotation Yrotation Zrotation
						JOINT Neck_virtual
						{
							OFFSET 0.000000 0.000000 0.000000
							CHANNELS 3 Xrotation Yrotation Zrotation
							JOINT Neck
							{
								OFFSET 0.000000 10.314075 0.188496
								CHANNELS 3 Xrotation Yrotation Zrotation
								JOINT Head
								{
									OFFSET 0.000000 7.643700 -2.377400
									CHANNELS 3 Xrotation Yrotation Zrotation
									JOINT HeadTop_End
									{
										OFFSET 0.000000 43.788605 -13.619600
										CHANNELS 3 Xrotation Yrotation Zrotation
										End Site
										{
											OFFSET 0 0 0
										}
									}
								}
							}
						}
						JOINT LeftShoulder_virtual
						{
							OFFSET 0.000000 0.000000 0.000000
							CHANNELS 3 Xrotation Yrotation Zrotation
							JOINT LeftShoulder
							{
								OFFSET 2.196100 4.412489 0.087492
								CHANNELS 3 Xrotation Yrotation Zrotation
								JOINT LeftShoulder_split
								{
									OFFSET 2.196100 4.412489 0.087492
									CHANNELS 3 Xrotation Yrotation Zrotation
									JOINT LeftArm
									{
										OFFSET 8.771219 -2.981674 -0.026999
										CHANNELS 3 Xrotation Yrotation Zrotation
										JOINT LeftForeArm
										{
											OFFSET 8.512804 0.000000 -0.000000
											CHANNELS 3 Xrotation Yrotation Zrotation
											JOINT LeftHand
											{
												OFFSET 18.484802 0.000000 -0.000000
												CHANNELS 3 Xrotation Yrotation Zrotation
												End Site
												{
													OFFSET 0 0 0
												}
											}
										}
									}
								}
							}
						}
						JOINT RightShoulder_virtual
						{
							OFFSET 0.000000 0.000000 0.000000
							CHANNELS 3 Xrotation Yrotation Zrotation
							JOINT RightShoulder
							{
								OFFSET -2.196100 4.412496 0.070690
								CHANNELS 3 Xrotation Yrotation Zrotation
								JOINT RightShoulder_split
								{
									OFFSET -2.196100 4.412496 0.070690
									CHANNELS 3 Xrotation Yrotation Zrotation
									JOINT RightArm
									{
										OFFSET -8.771282 -2.981682 -0.094208
										CHANNELS 3 Xrotation Yrotation Zrotation
										JOINT RightForeArm
										{
											OFFSET -8.494598 0.000000 0.000000
											CHANNELS 3 Xrotation Yrotation Zrotation
											JOINT RightHand
											{
												OFFSET -18.483803 0.000000 0.000001
												CHANNELS 3 Xrotation Yrotation Zrotation
												End Site
												{
													OFFSET 0 0 0
												}
											}
										}
									}
								}
							}
						}
					}
				}
			}
		}
	}
}
MOTION
Frames: 8
Frame Time: 0.03333333
1.200244 35.091591 -1.654533 0.000000 0.000000 0.000000 -0.712729 0.015174 -2.900520 -33.990477 -0.557503 3.300309 57.674636 -2.799876 -0.833253 24.122691 -0.535511 13.894525 -15.315094 -1.007891 1.161801 0.000000 0.000000 0.000000 -1.112252 2.603834 -3.085554 -16.410803 -14.235066 8.366957 35.493088 8.454754 -0.056652 12.500635 -2.533181 -7.625977 -19.185095 0.865681 3.434071 0.000000 0.000000 0.000000 -4.586451 4.495841 -1.994989 7.624775 1.059453 -1.001266 -2.578027 -0.618590 1.953033 -0.129049 1.225334 -0.703551 0.000000 0.000000 0.000000 -3.079142 -0.185359 1.776358 -4.270940 -2.338326 0.833844 2.393613 0.756964 3.870090 0.000000 0.000000 0.000000 -2.911578 -0.096291 2.068637 0.295065 3.214579 -0.889295 0.635917 -1.354932 0.195123 2.769072 4.505213 -71.111504 23.603331 -13.392702 1.168474 0.000000 0.000000 0.000000 -2.138435 -0.136689 1.922493 1.595061 5.381879 4.954561 -4.897098 1.351499 -1.758442 -7.770062 8.079815 77.807329 11.987058 16.086491 -3.140635 0.000000 0.000000 0.000000 
1.037725 35.132332 -0.547858 0.000000 0.000000 0.000000 -0.931536 -0.805753 -2.821085 -36.259412 0.387765 2.660874 50.568163 -1.949016 -0.992947 24.745939 -0.278009 15.747785 -14.897472 -0.966515 1.458923 0.000000 0.000000 0.000000 -0.525995 1.865211 -3.225048 -16.129437 -13.898679 8.009317 36.373127 8.931327 0.210578 14.520736 -2.215633 -8.262238 -21.439972 0.543946 3.827976 0.000000 0.000000 0.000000 -3.836449 3.805847 -2.663936 7.556281 1.287761 -0.801636 -2.575434 -0.577794 1.923052 -0.029497 0.762445 -0.523094 0.000000 0.000000 0.000000 -2.969390 -0.152467 1.749862 -4.176960 -2.131974 0.511896 2.746892 0.799507 3.863103 0.000000 0.000000 0.000000 -3.106511 -0.043388 2.039626 0.383613 3.629138 -1.131108 -0.059160 -1.714588 -0.200428 2.953314 4.625134 -70.755555 23.767559 -14.189767 1.411564 0.000000 0.000000 0.000000 -2.265642 -0.104366 1.940756 1.535699 5.459852 4.605731 -4.493559 1.608248 -1.643678 -8.607645 8.425524 77.525967 12.042545 15.713332 -3.340664 0.000000 0.000000 0.000000 
0.972631 35.272205 0.802721 0.000000 0.000000 0.000000 -0.957271 -1.488315 -2.632985 -38.600722 0.990085 1.202262 39.711840 -1.376010 0.025897 28.754987 -0.259046 14.006804 -15.409311 -0.821312 1.268893 0.000000 0.000000 0.000000 -0.242108 0.682734 -3.152703 -14.403426 -14.061444 7.022005 37.290606 9.544797 0.383770 14.943359 -0.838510 -9.697002 -25.079194 0.404674 4.044240 0.000000 0.000000 0.000000 -2.859871 2.836798 -3.225766 7.551698 1.595195 -0.231428 -2.577708 -0.500093 1.914910 0.465916 0.330492 -0.261303 0.000000 0.000000 0.000000 -2.897964 -0.110206 1.744301 -4.277896 -1.621166 -0.146618 3.075707 1.101954 3.372323 0.000000 0.000000 0.000000 -3.305945 0.041046 1.990672 0.487865 4.730040 -2.121330 -1.133117 -2.357420 -0.632688 3.477786 5.213249 -70.846520 24.353361 -14.966570 1.994271 0.000000 0.000000 0.000000 -2.308484 -0.054298 1.859480 1.538374 5.496371 3.952665 -4.151174 1.713833 -1.199076 -9.926876 9.568192 76.692977 11.905692 15.483262 -3.343602 0.000000 0.000000 0.000000 
1.043261 35.356239 2.193660 0.000000 0.000000 0.000000 -0.881701 -1.788702 -2.250882 -40.739346 1.382408 -0.509322 28.140875 -1.217844 1.750090 35.789481 -0.625441 9.225813 -18.038979 -0.574333 0.994387 0.000000 0.000000 0.000000 -0.119638 -0.620666 -2.849220 -11.386228 -14.811376 5.472852 37.298195 10.335076 0.609981 13.102752 1.244143 -11.719172 -28.350426 0.577234 4.046571 0.000000 0.000000 0.000000 -2.092341 1.824192 -3.596031 7.593342 1.873233 0.546994 -2.558205 -0.440020 1.966874 0.981556 0.037003 0.076570 0.000000 0.000000 0.000000 -2.887313 -0.106865 1.826040 -4.570476 -0.863805 -0.962729 3.390168 1.578881 2.554261 0.000000 0.000000 0.000000 -3.468521 0.094699 1.992135 0.631158 6.380758 -3.644286 -2.195644 -3.035509 -0.818828 4.443908 6.070520 -71.250225 25.161830 -15.413982 2.745899 0.000000 0.000000 0.000000 -2.317236 -0.050896 1.747576 1.620240 5.438236 3.036039 -3.911637 1.635231 -0.688720 -11.273689 11.008732 75.758279 11.588697 15.875335 -3.158181 0.000000 0.000000 0.000000 
1.182767 35.279003 3.606098 0.000000 0.000000 0.000000 -0.882465 -1.924148 -1.811257 -43.245124 2.027856 -2.117092 18.961777 -1.518691 3.521365 44.159161 -1.759081 3.134519 -21.858388 -0.215603 0.940905 0.000000 0.000000 0.000000 0.089230 -1.692550 -2.459192 -6.798007 -16.124028 3.927479 35.806382 11.197868 0.774605 8.756349 3.670248 -13.549767 -30.491549 0.971109 3.840702 0.000000 0.000000 0.000000 -1.447655 0.993293 -3.757526 7.603986 2.040245 1.277404 -2.466034 -0.429757 2.104357 1.110209 0.038734 0.311078 0.000000 0.000000 0.000000 -2.932829 -0.175978 2.050859 -5.026947 0.002154 -1.697460 3.691550 2.107558 1.645213 0.000000 0.000000 0.000000 -3.576110 0.086736 2.101795 0.847318 8.256482 -5.344433 -2.853383 -3.494823 -0.730391 5.600023 6.822651 -71.807623 25.885328 -15.378405 3.406578 0.000000 0.000000 0.000000 -2.323594 -0.120677 1.695137 1.756485 5.295005 1.999168 -3.635043 1.648614 -0.266812 -12.315465 12.226230 75.238960 11.115621 17.070965 -2.801460 0.000000 0.000000 0.000000 
1.350872 34.896469 5.058552 0.000000 0.000000 0.000000 -0.940821 -2.300761 -1.389224 -45.589136 3.491730 -3.519153 13.696345 -1.666931 4.629063 50.348576 -2.686450 -1.248196 -24.524535 0.181860 0.867561 0.000000 0.000000 0.000000 0.210542 -1.996504 -2.169945 -0.886054 -17.674084 2.860904 33.118867 11.962883 0.832628 2.469717 5.847564 -14.191938 -31.044733 1.427003 3.493941 0.000000 0.000000 0.000000 -1.152133 0.329653 -3.641390 7.495276 2.029215 1.667127 -2.307032 -0.486221 2.304419 0.924127 0.221116 0.369537 0.000000 0.000000 0.000000 -3.010412 -0.318773 2.383709 -5.613631 0.835515 -2.152558 3.998189 2.602727 0.914701 0.000000 0.000000 0.000000 -3.612969 0.014169 2.326231 1.105763 9.865822 -6.802219 -3.064867 -3.806608 -0.517413 6.665382 7.210932 -72.409164 26.205674 -14.665463 3.755418 0.000000 0.000000 0.000000 -2.332934 -0.255518 1.769710 1.906741 5.124238 0.954260 -3.196883 1.656133 0.037709 -12.749406 12.797638 75.547315 10.564804 18.696349 -2.335455 0.000000 0.000000 0.000000 
1.419767 34.232300 6.599807 0.000000 0.000000 0.000000 -1.114375 -3.012249 -0.984705 -47.074483 6.107822 -4.460195 12.241956 -1.418923 4.978819 51.580503 -2.387902 -2.169481 -25.254754 0.423339 1.245584 0.000000 0.000000 0.000000 0.154822 -1.770620 -1.891174 5.745822 -18.853829 2.727232 30.087390 12.274602 0.802081 -4.985289 7.038848 -13.652441 -31.036400 1.715804 3.202286 0.000000 0.000000 0.000000 -1.356580 0.082882 -3.367121 7.195779 1.862094 1.598471 -2.094642 -0.587337 2.525735 0.760168 0.639464 0.175884 0.000000 0.000000 0.000000 -3.022396 -0.482559 2.751661 -6.239701 1.565220 -2.227777 4.319013 2.990657 0.552656 0.000000 0.000000 0.000000 -3.558006 -0.080054 2.610866 1.360686 10.876396 -7.752098 -2.844615 -4.020160 -0.112546 7.414853 7.115017 -73.017912 26.094401 -13.368960 3.803183 0.000000 0.000000 0.000000 -2.339022 -0.409491 1.932585 1.979997 4.928656 0.029413 -2.734677 1.573819 0.186070 -12.542606 12.509770 76.644415 10.019221 19.944178 -1.885408 0.000000 0.000000 0.000000 
1.408238 33.484753 8.095556 0.000000 0.000000 0.000000 -1.426779 -3.749758 -0.732636 -47.409156 9.654845 -5.071256 14.313188 -1.695983 4.538125 48.652206 -1.721164 0.240049 -24.691542 0.434386 2.233078 0.000000 0.000000 0.000000 -0.267854 -1.235201 -1.638687 12.207290 -18.978256 3.633345 27.608600 11.760151 0.196624 -13.019756 7.047921 -12.759786 -31.152711 1.701409 3.028522 0.000000 0.000000 0.000000 -1.728776 0.350298 -3.014117 6.720285 1.590221 1.154607 -1.823233 -0.653081 2.725027 0.652107 1.071618 -0.138144 0.000000 0.000000 0.000000 -2.901946 -0.586322 3.053499 -6.783493 2.093575 -1.933931 4.639301 3.171432 0.608169 0.000000 0.000000 0.000000 -3.390941 -0.129610 2.867718 1.586420 11.084843 -8.062325 -2.432435 -4.004276 0.232452 7.548336 6.557715 -73.730991 25.736387 -11.866028 3.662887 0.000000 0.000000 0.000000 -2.217033 -0.492029 2.128614 1.950721 4.761184 -0.707936 -2.340741 1.419046 0.414190 -11.682390 11.626776 78.231225 9.587704 20.208318 -1.579417 0.000000 0.000000 0.000000 
